<?xml version="1.0" encoding="UTF-8" standalone="no"?>
<!DOCTYPE svg PUBLIC "-//W3C//DTD SVG 1.1//EN" "http://www.w3.org/Graphics/SVG/1.1/DTD/svg11.dtd">
<svg width="100%" height="100%" viewBox="0 0 1408 768" version="1.1" xmlns="http://www.w3.org/2000/svg" xmlns:xlink="http://www.w3.org/1999/xlink" xml:space="preserve" xmlns:serif="http://www.serif.com/" style="fill-rule:evenodd;clip-rule:evenodd;stroke-linejoin:round;stroke-miterlimit:2;">
    <g transform="matrix(2.61531,0,0,2.61531,-1149.633195,-938.851988)">
        <g transform="matrix(1.375,0,0,1.375,2,0)">
            <path d="M336.8,369.204C337.005,369.198 337.189,369.052 337.394,369.047C337.603,369.041 337.848,369.306 338.007,369.171C338.317,368.907 339.292,357.259 341.564,347.516C343.181,340.581 343.139,335.552 344.413,334.396C345.224,333.66 350.814,333.557 351.675,334.221C353.616,335.721 352.646,338.844 354.667,347.457C354.858,348.269 356.437,355.655 357.778,367.384C357.876,368.246 357.621,368.648 358.5,368.621C359.37,368.596 359.268,368.325 359.456,367.472C359.662,366.537 359.994,361.988 360.293,360.451C360.441,359.69 364.125,338.25 363.984,335.494C363.83,332.502 362.855,332.235 362.896,331.501C362.906,331.32 362.967,330.244 364.556,329.959C365.262,329.833 365.263,330.112 373.513,329.906C378.754,329.775 375.713,332.837 375.352,333.392C375.305,333.464 373.739,333.371 371.11,351.439C370.744,353.955 370.532,354.82 371.104,356.651C371.601,358.238 371.789,358.387 370.767,359.698C366.888,364.674 366.102,385.836 364.445,387.451C363.529,388.344 361.178,388.18 358.5,388.177C358.271,388.177 355.61,388.33 354.363,387.709C353.746,387.401 353.271,387.164 351.993,379.414C350.281,369.038 349.406,366.358 348.79,360.341C348.776,360.201 348.633,358.798 348.397,358.628C347.739,358.151 347.654,358.484 347.238,359.183C346.597,360.26 346.847,360.333 346.749,361.572C346.56,363.941 342.608,386.347 342.545,386.518C341.857,388.385 339.6,388.236 335.502,388.167C335.182,388.162 332.194,388.112 331.572,387.432C330.061,385.78 329.388,372.642 327.523,365.494C326.412,361.238 326.438,361.193 325.242,359.701C323.502,357.534 326.125,357.158 325.37,353.531C323.415,344.145 323.131,336.59 320.155,332.731C318.475,330.551 319.747,329.818 322.492,329.879C326.509,329.967 326.49,329.909 330.499,329.881C335.195,329.848 332.401,333.074 332.196,334.459C331.844,336.847 332.227,336.846 335.169,356.547C335.914,361.536 335.979,361.513 336.344,366.55C336.505,368.778 336.722,368.85 336.8,369.204Z" style="fill:rgb(81,46,30);"/>
        </g>
        <g transform="matrix(1.375,0,0,1.375,2,0)">
            <path d="M492.879,351.519C492.895,350.556 492.997,344.417 492.835,339.487C492.6,332.383 489.306,332.53 490.677,330.639C491.25,329.849 494.399,330.152 496.495,330.137C500.673,330.106 515.138,328.526 520.513,336.49C523.536,340.967 524.531,344.598 525.09,350.551C525.679,356.816 527.908,356.606 526.999,359.676C523.971,369.902 525.185,371.649 522.528,377.514C519.853,383.421 515.856,387.899 504.493,388.091C503.822,388.102 493.71,388.097 493.507,388.09C488.316,387.919 492.298,384.511 492.742,380.525C492.801,379.999 492.937,366.499 492.868,364.481C492.719,360.127 490.288,359.426 491.784,356.647C492.766,354.823 492.702,354.066 492.879,351.519ZM508.613,378.772C509.194,378.44 509.245,378.542 510.598,377.636C518.425,372.391 516.451,345.421 511.404,340.601C509.079,338.381 503.385,337.3 502.782,339.591C502.716,339.84 502.563,375.392 502.583,376.498C502.664,380.865 506.528,379.29 508.613,378.772Z" style="fill:rgb(82,46,29);"/>
        </g>
        <g transform="matrix(1.375,0,0,1.375,2,0)">
            <path d="M378.91,349.552C378.996,348.903 379.608,344.266 380.63,341.543C381.655,338.811 384.755,329.131 395.509,328.986C402.704,328.888 407.237,334.005 408.547,336.471C413.758,346.275 411.125,350.471 413.753,356.376C414.835,358.808 414.172,358.899 413.276,361.419C412.537,363.495 412.49,370.528 410.841,375.621C408.796,381.937 405.325,388.033 397.542,388.848C378.857,390.806 378.785,367.083 378.45,363.505C378.218,361.024 376.404,359.351 377.067,357.351C377.739,355.325 378.316,355.458 378.91,349.552ZM389.054,348.432C388.702,351.696 386.833,366.118 390.647,376.445C392.552,381.602 400.35,383.56 401.872,370.56C402.061,368.94 404.139,359.294 401.656,345.472C399.933,335.882 394.633,335.009 391.24,340.35C390.016,342.277 389.158,347.77 389.054,348.432Z" style="fill:rgb(81,45,29);"/>
        </g>
        <g transform="matrix(1.375,0,0,1.375,2,0)">
            <path d="M620.878,369.447C620.137,363.106 620.215,363.108 620.131,362.56C619.859,360.777 618.416,358.815 618.8,357.606C619.267,356.134 620.008,356.347 620.604,351.511C620.787,350.022 620.714,350.033 620.902,348.56C621.371,344.899 623.708,337.87 625.901,334.799C629.876,329.232 636.461,329.11 637.494,329.091C649.118,328.874 652.092,340.005 652.501,341.5C654.137,347.49 654.01,347.504 654.365,351.51C654.762,355.988 655.8,356.937 656.038,357.652C656.627,359.423 655.058,359.28 654.335,366.486C654.229,367.542 653.51,374.7 651.275,379.398C647.061,388.255 641.751,389.11 636.474,388.885C623.262,388.323 621.739,374.201 620.878,369.447ZM644.851,360.514C644.86,359.054 644.926,348.325 642.812,342.383C640.026,334.551 634.251,335.839 631.814,343.601C630.135,348.947 627.861,378.967 636.549,380.23C643.01,381.17 644.453,370.374 644.851,360.514Z" style="fill:rgb(82,46,29);"/>
        </g>
        <g transform="matrix(1.375,0,0,1.375,2,0)">
            <path d="M614.065,365.464C613.256,373.516 610.832,390.744 594.466,388.775C584.725,387.603 582.609,377.327 581.613,374.462C579.77,369.158 580.575,363.333 578.94,360.28C577.451,357.499 578.811,357.42 579.637,354.539C580.724,350.744 580.315,342.125 585.144,335.259C585.442,334.836 588.896,328.881 597.516,329.152C613.241,329.647 613.526,350.762 614.33,354.54C614.711,356.326 615.944,357.424 615.279,359.41C614.292,362.355 614.314,362.356 614.065,365.464ZM590.114,351.468C588.825,370.544 591.763,383.825 599.523,379.537C600.746,378.861 604.469,374.396 604.271,359.505C604.244,357.468 604.589,336.557 596.474,337.242C596.063,337.277 594.024,337.449 592.464,340.479C590.643,344.014 590.421,347.735 590.114,351.468Z" style="fill:rgb(82,46,29);"/>
        </g>
        <g transform="matrix(1.375,0,0,1.375,2,0)">
            <path d="M676.761,367.409C675.561,363.479 675.591,363.478 675.258,362.589C674.311,360.063 674.2,360.11 673.532,357.489C673.455,357.187 672.688,354.173 672.21,353.826C672.064,353.719 671.026,353.742 670.944,353.834C670.624,354.19 670.952,357.207 670.983,357.498C672.068,367.477 670.573,379.242 672.367,383.562C672.626,384.185 675.557,388.069 671.49,388.128C668.979,388.165 668.997,388.065 666.499,388.064C662.442,388.064 660.221,388.308 660.301,386.493C660.339,385.641 660.571,385.725 661.33,384.403C662.746,381.938 662.613,378.946 662.598,375.5C662.544,362.289 662.665,362.136 661.155,359.692C659.938,357.721 661.518,356.793 662.122,355.351C662.937,353.406 662.458,337.862 662.307,336.526C661.963,333.496 659.556,332.091 660.642,330.62C661.065,330.048 661.27,329.77 669.52,330.072C673.5,330.218 672.732,331.986 674.574,336.469C675.897,339.689 679.48,349.962 679.664,350.437C682.063,356.642 681.651,356.77 681.862,357.307C681.919,357.451 682.838,358.304 683.267,358.113C683.647,357.944 684.255,355.657 684.314,355.435C684.649,354.176 687.259,347.718 691.756,334.587C693.625,329.131 695.056,330.151 699.499,330.076C703.994,330 707.178,329.302 705.002,333.237C702.664,337.463 703.58,337.742 703.237,350.493C703.092,355.916 704.457,356.137 705.021,357.664C705.504,358.972 704.02,360.776 703.711,362.539C703.49,363.798 703.013,366.511 703.267,378.506C703.416,385.515 707.333,386.108 704.722,387.858C704.043,388.313 703.963,388.149 694.507,388.146C690.048,388.145 692.565,384.923 693.175,383.37C693.436,382.707 694.125,380.953 694.024,374.495C693.884,365.482 693.694,365.494 694.221,356.514C694.234,356.305 694.465,352.363 692.523,354.522C692.293,354.778 691.701,357.297 691.643,357.542C691.575,357.834 689.991,363.831 687.346,371.446C686.228,374.665 686.465,376.036 683.488,376.122C683.31,376.127 681.351,376.221 680.344,375.811C678.919,375.231 679.384,374.499 676.761,367.409Z" style="fill:rgb(82,46,29);"/>
        </g>
        <g transform="matrix(1.375,0,0,1.375,2,0)">
            <path d="M451.146,350.459C450.02,356.951 448.726,358.516 445.067,362.05C442.86,364.183 444.591,364.626 446.975,372.345C448.237,376.428 448.305,376.389 449.52,380.494C450.805,384.836 453.554,384.227 453.815,385.358C453.861,385.561 454.153,386.827 452.602,387.658C448.408,389.904 443.21,388.912 441.442,386.547C438.543,382.669 438.85,380.039 437.65,376.449C435.976,371.443 436.056,365.755 432.511,365.901C430.439,365.987 430.259,368.205 430.237,368.479C430.226,368.618 430.158,379.585 430.427,381.508C430.891,384.819 433.11,386.036 432.286,387.354C431.786,388.153 431.589,388.223 420.519,388.093C420.272,388.09 417.426,388.056 418.708,385.603C420.439,382.291 420.798,382.212 420.605,368.499C420.51,361.683 420.18,361.609 419.439,359.526C418.518,356.939 420.084,357.018 420.44,353.496C420.675,351.178 420.856,338.241 420.171,335.575C419.893,334.492 419.469,333.716 419.387,333.565C418.969,332.801 416.67,330.029 421.502,329.93C422.381,329.912 422.374,330.107 432.497,329.961C446.764,329.756 449.024,336.257 450.673,342.45C451.559,345.775 451.193,349.559 451.146,350.459ZM430.304,349.5C430.329,353.609 429.765,357.267 433.493,357.211C435.812,357.176 440.112,355.821 440.844,350.558C441.84,343.392 439.883,339.625 435.528,338.402C431.203,337.188 430.668,339.125 430.56,339.518C430.287,340.507 430.315,346.032 430.304,349.5Z" style="fill:rgb(79,44,28);"/>
        </g>
        <g transform="matrix(1.375,0,0,1.375,2,0)">
            <path d="M469.887,336.546C468.781,356.487 470.54,356.328 470.597,356.447C471.762,358.871 471.066,358.973 470.366,360.424C469.806,361.584 469.348,362.533 469.482,376.5C469.488,377.178 469.383,378.937 471.539,379.147C478.902,379.864 480.819,378.921 481.538,378.567C482.826,377.933 484.751,375.937 485.499,375.977C486.937,376.054 486.818,378.285 486.806,378.513C486.347,387.15 486.282,387.296 485.641,387.66C484.631,388.233 484.563,388.132 471.499,388.127C459.074,388.122 457.637,388.411 457.609,386.494C457.582,384.706 459.762,384.008 459.89,379.517C459.926,378.234 460.212,368.178 459.88,363.475C459.596,359.44 456.78,359.381 458.706,356.641C459.835,355.035 459.878,354.915 459.877,340.5C459.877,337.34 460.031,335.534 458.199,332.651C456.054,329.277 461.722,330.102 466.496,330.066C467.667,330.057 471.718,329.52 471.711,331.493C471.709,332.089 471.575,332.051 470.769,333.63C470.135,334.873 470.289,334.914 469.887,336.546Z" style="fill:rgb(82,48,31);"/>
        </g>
        <g transform="matrix(1.375,0,0,1.375,2,0)">
            <path d="M549.961,365.504C549.916,364.397 550.054,362.162 549.255,360.622C548.469,359.109 547.96,359.131 548.469,357.487C548.85,356.253 550.079,356.439 550.11,350.488C550.182,336.596 549.797,335.758 549.266,334.602C548.954,333.921 548.532,333.291 548.265,332.591C547.741,331.22 548.368,330.607 548.489,330.488C549.259,329.736 552.556,330.445 557.48,330.106C561.099,329.857 563.192,330.274 561.223,333.328C559.271,336.356 559.473,336.568 559.473,351.5C559.473,357.135 562.266,357.076 560.878,359.677C558.852,363.477 559.636,364.304 559.471,371.499C559.336,377.413 558.535,379.245 562.501,379.321C571.475,379.493 571.395,378.747 571.592,378.647C572.508,378.182 577.109,373.361 576.596,379.506C575.98,386.882 575.85,387.57 574.403,388.081C573.914,388.253 573.893,388.081 554.502,388.079C549.692,388.078 546.491,388.879 548.523,384.511C550.116,381.089 550.134,378.361 549.961,365.504Z" style="fill:rgb(81,48,30);"/>
        </g>
        <g transform="matrix(1.375,0,0,1.375,2,0)">
            <path d="M351.286,347.608C350.865,347.641 350.882,347.523 350.472,347.555C349.556,347.628 349.601,347.755 349.524,347.748C348.383,347.648 348.643,346.826 347.502,346.867C345.976,346.922 346.261,347.841 347.449,348.798C347.828,349.104 348.531,348.955 348.798,349.363C349.017,349.698 348.621,350.148 348.594,350.548C348.574,350.864 348.649,351.179 348.658,351.495C348.69,352.696 348.435,353.463 348.426,353.543C348.091,353.504 347.751,353.635 347.416,353.596C346.872,353.532 346.923,353.277 345.491,353.331C345.352,353.336 344.041,353.385 343.759,353.153C343.666,353.076 343.112,352.621 343.655,351.644C344.019,350.988 344.305,351.24 344.664,350.562C344.821,350.267 344.869,349.926 344.978,349.609C345.106,349.233 345.459,348.874 345.375,348.485C345.283,348.059 344.657,347.908 344.522,347.494C344.43,347.211 344.727,346.932 344.774,346.639C344.808,346.424 344.663,346.178 344.763,345.984C344.892,345.736 345.246,345.67 345.399,345.436C345.497,345.285 345.338,345.237 346.247,343.356C346.387,343.067 346.596,342.808 346.684,342.499C346.772,342.189 346.629,341.827 346.766,341.535C347.389,340.205 348.263,340.667 348.392,340.735C349.37,341.251 348.83,341.539 348.695,342.629C348.659,342.924 348.775,343.266 348.616,343.516C348.346,343.939 347.51,344.015 347.49,344.516C347.437,345.874 348.199,344.897 349.521,344.629C351.69,344.19 351.14,345.397 351.286,347.608Z" style="fill:rgb(115,79,63);"/>
        </g>
        <g transform="matrix(1.375,0,0,1.375,2,0)">
            <path d="M423.894,342.675C424.082,342.558 424.366,342.721 424.554,342.605C424.809,342.446 424.828,341.923 425.128,341.91C425.241,341.905 425.04,342.06 425.779,343.17C426.461,344.194 426.298,344.25 426.332,345.46C426.342,345.802 426.471,346.142 426.431,346.481C426.381,346.913 426.059,347.299 426.067,347.734C426.072,348.026 426.39,348.231 426.469,348.512C426.606,348.996 426.575,349.431 426.569,349.511C426.534,349.997 426.366,349.945 426.331,350.427C426.33,350.788 426.328,351.148 426.326,351.508C426.465,351.807 426.428,352.168 426.567,352.467C426.752,352.868 427.113,353.172 427.284,353.579C427.848,354.912 427.232,354.879 426.211,356.835C426.073,356.806 424.489,356.476 424.489,356.476C424.123,356.514 424.208,356.719 423.851,356.756C423.839,356.336 423.967,355.92 423.956,355.5C423.947,355.195 423.802,354.903 423.792,354.598C423.78,354.215 423.89,353.836 423.891,353.453C423.901,349.947 423.867,349.947 423.949,349.483C424.141,348.39 424.891,347.979 424.898,347.949C425.175,346.711 424.844,346.744 424.397,345.562C424.232,345.125 423.926,342.907 423.894,342.675Z" style="fill:rgb(115,76,61);"/>
        </g>
        <g transform="matrix(1.375,0,0,1.375,2,0)">
            <path d="M498.785,356.027C498.9,356.261 499.171,356.394 499.286,356.629C499.347,356.753 499.817,357.711 499.329,358.356C499.246,358.465 498.511,359.436 497.615,358.426C497.499,358.294 497.572,358.274 496.952,356.333C496.565,355.12 496.301,354.965 497.188,354.035C497.315,353.901 497.577,353.83 497.582,353.645C497.592,353.235 497.205,352.877 497.226,352.468C497.246,352.088 497.634,351.803 497.699,351.428C497.725,351.277 497.584,351.289 497.583,349.515C497.582,346.609 496.431,346.751 496.204,345.628C495.723,343.246 498.026,343.325 498.388,343.648C498.611,343.847 498.615,344.202 498.691,344.49C499.159,346.273 499.989,348.085 499.552,350.521C499.499,350.814 499.337,351.082 499.306,351.378C499.268,351.726 499.377,352.079 499.346,352.428C499.177,354.344 498.731,354.205 498.729,354.368C498.722,355.035 499.074,354.948 499.096,355.6C499.106,355.891 498.775,355.738 498.785,356.027Z" style="fill:rgb(119,78,60);"/>
        </g>
        <g transform="matrix(1.375,0,0,1.375,2,0)">
            <path d="M698.37,343.667C698.458,344.073 699.133,344.172 699.221,344.578C699.239,344.661 699.062,344.597 698.776,345.54C698.634,346.008 698.784,346.019 698.646,346.475C698.284,346.317 697.826,346.562 697.464,346.404C697.064,346.229 696.831,345.8 696.486,345.531C695.512,344.772 695.171,344.408 694.543,345.489C694.384,345.761 694.691,346.101 694.736,346.413C694.79,346.788 694.906,347.173 694.84,347.546C694.84,347.546 693.854,349.722 693.768,349.911C693.653,349.953 693.396,350.348 692.486,350.376C692.25,350.383 690.05,350.45 690.267,348.418C690.365,347.495 692.255,347.108 692.693,345.591C692.963,344.653 692.679,344.457 694.087,343.181C695.752,341.672 695.875,342.987 696.635,343.378C696.76,343.442 696.763,343.399 698.37,343.667Z" style="fill:rgb(142,109,91);"/>
        </g>
        <g transform="matrix(1.375,0,0,1.375,2,0)">
            <path d="M358.529,374.466C358.508,374.617 358.164,375.185 358.247,376.448C358.348,377.988 358.467,377.991 358.268,378.469C358.102,378.867 357.686,379.131 357.532,379.534C357.508,379.596 357.466,382.165 357.463,382.393C357.117,382.365 356.815,382.733 356.469,382.705C355.218,382.603 355.573,378.476 354.979,375.404C354.792,374.435 354.574,374.516 354.355,373.56C354.325,373.428 354.063,372.284 354.745,371.92C355.496,371.519 357.009,372.403 357.099,372.582C357.252,372.889 357.241,373.259 357.381,373.573C357.482,373.798 357.616,374.024 357.811,374.176C358.015,374.335 358.325,374.308 358.529,374.466Z" style="fill:rgb(136,99,82);"/>
        </g>
        <g transform="matrix(1.375,0,0,1.375,2,0)">
            <path d="M553.558,352.511C553.727,352.678 553.66,353.003 553.829,353.171C554.045,353.384 554.445,353.438 554.503,353.446C554.953,353.506 554.934,353.32 555.384,353.381C555.368,353.771 555.641,354.137 555.625,354.528C555.622,354.603 555.094,355.319 555.559,356.438C555.781,356.973 556.172,357.098 555.951,358.547C555.796,359.561 555.683,359.565 555.936,360.556C556.068,361.074 556.739,361.693 555.283,363.354C555.246,363.397 555.216,363.347 554.719,363.794C554.137,364.316 554.105,364.239 553.459,364.709C553.222,364.15 553.538,364.093 553.302,363.536C552.928,362.655 552.647,362.877 552.649,362.799C552.655,362.542 553.189,362.651 553.327,362.434C553.805,361.681 552.791,360.3 553.368,358.462C553.549,357.887 553.838,357.345 553.969,356.757C554.168,355.869 553.896,355.901 553.303,354.525C553.238,354.375 552.501,352.663 552.587,352.602C552.852,352.414 553.293,352.699 553.558,352.511Z" style="fill:rgb(126,91,75);"/>
        </g>
        <g transform="matrix(1.375,0,0,1.375,2,0)">
            <path d="M327.648,347.428C328.405,347.459 329.162,347.49 329.918,347.521C329.92,347.843 330.026,348.158 330.028,348.48C330.03,348.826 329.882,349.171 329.931,349.513C329.955,349.674 330.151,349.601 330.631,351.425C330.695,351.667 330.66,351.935 330.757,352.167C330.791,352.249 331.842,353.152 331.477,355.492C331.463,355.58 330.76,355.657 332.175,359.453C331.616,359.471 331.056,359.488 330.497,359.506C330.334,359.357 330.083,359.33 329.919,359.181C329.807,359.078 329.183,358.512 329.216,357.413C329.226,357.093 329.464,356.811 329.488,356.493C329.514,356.164 329.351,355.841 329.363,355.512C329.376,355.165 329.556,354.836 329.562,354.488C329.573,353.706 328.663,351.905 328.515,351.493C328.039,350.173 327.771,350.175 327.648,347.428Z" style="fill:rgb(118,79,58);"/>
        </g>
        <g transform="matrix(1.375,0,0,1.375,2,0)">
            <path d="M465.555,379.653L466.542,379.414C467.046,379.944 467.037,379.933 467.538,380.462C467.721,380.656 467.972,380.782 468.139,380.991C468.269,381.153 468.255,381.415 468.411,381.554C469.289,382.336 469.422,382.006 470.51,381.513C471.568,381.035 471.908,380.331 472.373,381.417C472.515,381.751 471.506,383.471 470.547,383.732C469.574,383.998 469.576,383.427 468.597,383.615C467.981,383.733 468.079,384.345 465.481,384.073C464.783,384 462.903,384.126 463.946,381.661C464.113,381.266 464.327,380.892 464.494,380.497C464.848,380.216 465.201,379.934 465.555,379.653Z" style="fill:rgb(133,100,85);"/>
        </g>
        <g transform="matrix(1.375,0,0,1.375,2,0)">
            <path d="M427.27,360.545C427.85,360.222 427.926,360.44 428.5,360.121C429.642,359.487 429.488,359.286 429.595,359.253C429.884,359.164 430.275,359.281 430.46,359.519C430.883,360.063 430.564,360.116 430.283,361.485C430.24,361.695 430.234,363.374 429.653,363.649C427.652,364.595 427.538,364.199 427.378,364.299C427.059,364.498 426.668,366.411 425.519,366.56C424.145,366.739 423.837,365.644 423.793,365.487C423.717,365.216 423.777,365.212 424.967,362.164C425.314,362.03 425.271,362.478 425.616,362.345C426.192,362.122 425.981,361.856 426.543,361.555C426.751,361.443 427.108,361.663 427.246,361.471C427.427,361.221 427.089,360.795 427.27,360.545Z" style="fill:rgb(136,104,88);"/>
        </g>
        <g transform="matrix(1.375,0,0,1.375,2,0)">
            <path d="M667.34,340.343C667.226,339.915 667.708,339.992 667.594,339.564C667.422,338.919 667.055,339.145 666.848,338.493C666.609,337.741 667.242,337.432 667.328,337.389C667.541,337.286 667.8,337.298 668.008,337.185C669.351,336.455 669.399,335.739 670.477,336.53C670.836,336.793 671.044,337.214 671.324,337.559C672.052,338.454 672.324,338.366 672.335,339.517C672.337,339.672 671.746,342.152 671.692,342.38C671.012,342.367 670.333,342.354 669.653,342.34C669.562,342.191 668.515,340.469 668.515,340.469C668.198,340.235 667.657,340.576 667.34,340.343Z" style="fill:rgb(110,72,53);"/>
        </g>
        <g transform="matrix(1.375,0,0,1.375,2,0)">
            <path d="M441.199,360.446C440.959,361.121 440.72,361.797 440.48,362.472C440.191,362.909 439.879,362.341 439.594,362.77C439.56,362.822 439.768,362.792 439.776,363.533C439.777,363.609 439.433,365.414 439.415,365.435C438.507,366.489 437.793,365.477 437.714,365.365C437.463,365.009 437.135,363.038 438.753,360.707C439.156,360.126 439.072,360.099 439.301,359.432C439.727,358.192 441.166,357.509 441.267,357.388C441.456,357.161 441.482,356.826 441.67,356.599C442.75,355.295 443.599,355.823 443.546,357.503C443.519,358.361 443.362,358.311 442.734,358.897C441.838,359.732 441.741,359.59 441.666,359.663C441.448,359.875 441.416,360.234 441.199,360.446Z" style="fill:rgb(124,86,67);"/>
        </g>
        <g transform="matrix(1.375,0,0,1.375,2,0)">
            <path d="M553.558,352.511C553.63,352.052 553.734,352.093 553.805,351.644C553.822,351.531 553.959,350.659 553.916,350.225C553.896,350.022 553.478,349.779 553.637,348.547C553.676,348.241 553.829,347.95 553.83,347.642C553.831,346.56 553.584,346.591 553.63,345.519C553.64,345.282 553.745,342.83 553.876,342.57C553.951,342.422 555.384,342.263 555.591,342.417C556.292,342.939 555.356,347.128 555.423,347.566C555.468,347.861 555.755,348.081 555.808,348.375C556.038,349.662 555.272,350.259 555.267,350.321C555.173,351.5 556.068,351.337 555.905,352.514C555.859,352.848 555.43,353.047 555.384,353.381C554.934,353.32 554.953,353.506 554.503,353.446C554.445,353.438 554.045,353.384 553.829,353.171C553.66,353.003 553.727,352.678 553.558,352.511Z" style="fill:rgb(127,89,70);"/>
        </g>
        <g transform="matrix(1.375,0,0,1.375,2,0)">
            <path d="M698.646,346.475C699.504,349.496 699.466,350.302 698.42,350.311C698.131,350.313 697.858,350.158 697.57,350.138C697.408,350.128 697.413,350.248 695.542,350.2C694.149,350.164 694.199,349.981 693.768,349.911C693.854,349.722 694.84,347.546 694.84,347.546C694.906,347.173 694.79,346.788 694.736,346.413C694.691,346.101 694.384,345.761 694.543,345.489C695.171,344.408 695.512,344.772 696.486,345.531C696.831,345.8 697.064,346.229 697.464,346.404C697.826,346.562 698.284,346.317 698.646,346.475Z" style="fill:rgb(115,81,63);"/>
        </g>
        <g transform="matrix(1.375,0,0,1.375,2,0)">
            <path d="M672.655,344.209C673.002,344.523 673.151,344.197 673.494,344.507C673.558,344.565 674.064,345.022 674.015,345.438C673.967,345.85 673.317,346.022 673.269,346.434C672.574,347.69 672.582,347.677 671.717,348.811C670.775,349.596 669.894,351.012 668.338,349.635C667.122,348.558 667.648,347.687 667.619,347.525C667.817,347.508 667.973,347.318 668.171,347.301C668.586,347.266 669.004,347.41 669.419,347.37C670.263,347.29 670.564,347.377 670.525,346.522C670.506,346.096 670.299,345.692 670.28,345.266C670.334,345.229 670.648,344.682 671.528,344.405C671.892,344.291 672.292,344.324 672.655,344.209Z" style="fill:rgb(167,133,117);"/>
        </g>
        <g transform="matrix(1.375,0,0,1.375,2,0)">
            <path d="M586.531,357.501C586.514,357.836 586.498,358.171 586.481,358.506C586.494,358.667 586.649,360.516 586.649,360.516C586.649,360.516 586.309,362.271 586.28,362.424C585.957,362.662 585.634,362.9 585.311,363.138C585.143,363.048 584.926,363.37 584.758,363.281C584.079,362.92 584.23,360.161 584.004,359.512C583.88,359.156 583.602,358.865 583.483,358.506C583.04,357.162 583.326,357.122 584.186,356.011C584.889,355.103 584.726,355.003 584.819,354.973C585.137,354.868 586.351,355.348 586.411,355.532C586.617,356.156 586.325,356.876 586.531,357.501Z" style="fill:rgb(122,88,68);"/>
        </g>
        <g transform="matrix(1.375,0,0,1.375,2,0)">
            <path d="M667.34,340.343C667.657,340.576 668.198,340.235 668.515,340.469C668.515,340.469 669.562,342.191 669.653,342.34C669.366,344.737 669.265,344.729 669.344,344.921C669.469,345.23 670.155,344.958 670.28,345.266C670.299,345.692 670.506,346.096 670.525,346.522C670.564,347.377 670.263,347.29 669.419,347.37C669.004,347.41 668.586,347.266 668.171,347.301C667.973,347.318 667.817,347.508 667.619,347.525C666.867,344.739 666.811,344.766 666.807,344.516C666.792,343.491 667.048,343.517 666.981,342.49C666.96,342.157 666.849,341.833 666.843,341.499C666.827,340.477 667.218,340.628 667.34,340.343Z" style="fill:rgb(133,99,82);"/>
        </g>
        <g transform="matrix(1.375,0,0,1.375,2,0)">
            <path d="M351.286,347.608C351.196,348.188 351.106,348.767 351.016,349.347C350.902,349.589 350.539,349.444 350.471,350.502C350.431,351.13 350.746,352.25 350.788,352.398C350.863,352.665 351.055,352.917 351.031,353.193C351.022,353.289 350.987,353.27 350.438,354.241C350.1,354.242 349.819,354.58 349.48,354.58C349.05,354.58 348.755,354.29 348.707,354.242C348.425,353.965 348.706,353.819 348.426,353.543C348.435,353.463 348.69,352.696 348.658,351.495C348.649,351.179 348.574,350.864 348.594,350.548C348.621,350.148 349.017,349.698 348.798,349.363C348.531,348.955 347.828,349.104 347.449,348.798C346.261,347.841 345.976,346.922 347.502,346.867C348.643,346.826 348.383,347.648 349.524,347.748C349.601,347.755 349.556,347.628 350.472,347.555C350.882,347.523 350.865,347.641 351.286,347.608Z" style="fill:rgb(159,123,108);"/>
        </g>
        <g transform="matrix(1.375,0,0,1.375,2,0)">
            <path d="M409.191,355.616C409.123,355.879 409.301,356.168 409.233,356.431C409.187,356.606 408.968,356.685 408.873,356.84C408.045,358.192 409.27,358.625 408.358,361.464C407.455,364.276 405.65,363.108 405.954,361.664C406.039,361.263 406.209,360.884 406.31,360.486C406.695,358.972 406.133,358.75 406.123,358.455C406.111,358.111 406.306,357.789 406.433,357.469C406.573,357.121 406.84,356.822 406.922,356.456C406.991,356.145 406.743,355.795 406.87,355.503C406.981,355.249 408.158,354.614 408.381,354.666C408.478,354.689 408.44,354.735 409.191,355.616Z" style="fill:rgb(112,76,57);"/>
        </g>
        <g transform="matrix(1.375,0,0,1.375,2,0)">
            <path d="M586.28,362.424C586.273,362.729 586.062,363.007 586.055,363.313C586.024,364.81 586.594,366.284 586.689,366.529C586.888,367.044 587.215,367.035 587.447,370.511C587.531,371.769 587.758,372.281 586.508,372.28C584.629,372.279 586.295,369.678 584.591,366.364C584.095,365.399 583.774,365.372 584.25,364.388C584.488,363.896 585.073,363.63 585.311,363.138C585.634,362.9 585.957,362.662 586.28,362.424Z" style="fill:rgb(107,71,51);"/>
        </g>
        <g transform="matrix(1.375,0,0,1.375,2,0)">
            <path d="M358.529,374.466C359.094,374.365 358.894,373.986 359.46,373.885C359.602,373.859 359.558,374.175 359.673,374.261C359.887,374.42 360.176,374.446 360.403,374.585C360.814,374.837 361.166,375.177 361.577,375.429C360.092,378.739 360.095,378.714 359.709,379.619C359.138,380.957 358.966,380.856 358.921,380.973C358.777,381.352 358.879,381.797 358.735,382.176L357.463,382.393C357.466,382.165 357.508,379.596 357.532,379.534C357.686,379.131 358.102,378.867 358.268,378.469C358.467,377.991 358.348,377.988 358.247,376.448C358.164,375.185 358.508,374.617 358.529,374.466Z" style="fill:rgb(94,58,41);"/>
        </g>
        <g transform="matrix(1.375,0,0,1.375,2,0)">
            <path d="M554.717,379.94C558.538,380.942 558.525,381.379 558.555,382.513C558.581,383.51 558.624,383.709 557.658,383.988C557.33,384.083 556.96,384.168 556.637,384.058C556.225,383.918 556.001,383.416 555.587,383.283C555.238,383.171 554.858,383.356 554.492,383.37C553.061,383.425 553.097,382.882 553.418,381.486C553.741,380.082 554.289,380.222 554.717,379.94Z" style="fill:rgb(147,117,99);"/>
        </g>
        <g transform="matrix(1.375,0,0,1.375,2,0)">
            <path d="M423.851,356.756C424.208,356.719 424.123,356.514 424.489,356.476C424.489,356.476 426.073,356.806 426.211,356.835C426.312,357.06 426.618,357.148 426.72,357.373C426.826,357.608 426.616,357.647 427.27,360.545C427.089,360.795 427.427,361.221 427.246,361.471C427.108,361.663 426.751,361.443 426.543,361.555C425.981,361.856 426.192,362.122 425.616,362.345C425.271,362.478 425.314,362.03 424.967,362.164C424.81,361.743 424.399,361.888 424.344,360.491C424.313,359.708 424.465,359.697 424.057,358.603C423.843,358.028 423.702,358.095 423.636,357.502C423.591,357.1 423.896,357.159 423.851,356.756Z" style="fill:rgb(192,164,152);"/>
        </g>
        <g transform="matrix(1.375,0,0,1.375,2,0)">
            <path d="M441.927,374.297L442.43,374.587C442.876,374.823 443.391,374.91 443.837,375.146C444.447,375.469 444.766,377.156 444.917,377.449C445.482,378.551 445.982,378.528 445.512,379.504C445.423,379.689 445.354,379.588 443.245,380.707C442.01,377.639 442.312,377.575 441.927,374.297Z" style="fill:rgb(113,75,59);"/>
        </g>
        <g transform="matrix(1.375,0,0,1.375,2,0)">
            <path d="M518.607,348.47C518.862,348.028 518.346,347.959 518.6,347.519C518.645,347.441 518.961,346.894 519.525,346.882C521.142,346.846 521.291,350.175 521.305,350.498C521.392,352.423 521.484,352.984 521.236,353.339C521.11,353.52 519.627,355.208 519.14,351.553C518.932,349.994 518.947,350.005 518.607,348.47Z" style="fill:rgb(126,87,68);"/>
        </g>
        <g transform="matrix(1.375,0,0,1.375,2,0)">
            <path d="M334.958,376.82C335.164,376.779 335.38,376.81 335.585,376.769C336.745,376.536 337.882,375.424 338.851,376.069C339.602,376.569 339.806,376.68 339.371,377.464C339.144,377.873 338.718,378.136 338.362,378.44C337.075,379.541 337.091,380.008 335.474,379.55C333.836,379.087 334.34,377.639 334.402,377.462C334.495,377.195 334.865,377.087 334.958,376.82Z" style="fill:rgb(141,105,90);"/>
        </g>
        <g transform="matrix(1.375,0,0,1.375,2,0)">
            <path d="M444.675,349.433C444.635,349.154 444.013,349.239 443.974,348.959C443.94,348.72 444.391,348.699 444.544,348.513C444.726,348.292 444.798,347.998 444.961,347.763C445.064,347.615 445.349,347.552 445.335,347.373C445.258,346.329 444.678,346.514 444.587,345.485C444.476,344.234 445.31,344.188 445.434,344.181C445.681,344.168 446.833,344.104 447.433,346.527C448.045,348.995 445.651,349.819 445.374,350.035L444.675,349.433Z" style="fill:rgb(140,105,82);"/>
        </g>
        <g transform="matrix(1.375,0,0,1.375,2,0)">
            <path d="M361.577,375.429C362.248,377.917 362.785,378.002 362.04,379.226C361.67,379.833 361.616,379.789 361.367,380.454C360.685,382.276 361.279,382.311 361.209,382.456C361.107,382.667 360.741,382.48 360.508,382.51C360.137,382.558 359.768,382.759 359.4,382.69C359.125,382.638 359.01,382.228 358.735,382.176C358.879,381.797 358.777,381.352 358.921,380.973C358.966,380.856 359.138,380.957 359.709,379.619C360.095,378.714 360.092,378.739 361.577,375.429Z" style="fill:rgb(141,102,84);"/>
        </g>
        <g transform="matrix(1.375,0,0,1.375,2,0)">
            <path d="M696.585,353.505C696.99,353.48 697.02,352.65 697.425,352.625C697.879,352.597 698.174,353.143 698.56,353.383C699.355,353.877 699.672,353.891 699.628,356.473C699.624,356.668 699.591,358.607 698.511,358.64C698.382,358.644 697.498,358.672 697.326,357.543C697.302,357.382 697.424,357.377 697.215,355.509C697.174,355.148 697.232,354.77 697.124,354.424C697.017,354.085 696.691,353.844 696.585,353.505Z" style="fill:rgb(122,84,66);"/>
        </g>
        <g transform="matrix(1.375,0,0,1.375,2,0)">
            <path d="M351.016,349.347C351.193,349.542 353.069,351.614 353.094,351.899C353.106,352.035 352.728,351.98 352.843,353.585C352.921,354.675 353.39,354.86 352.547,355.553C352.012,355.993 351.538,355.698 351.464,355.653C350.701,355.178 351.215,354.724 350.438,354.241C350.987,353.27 351.022,353.289 351.031,353.193C351.055,352.917 350.863,352.665 350.788,352.398C350.746,352.25 350.431,351.13 350.471,350.502C350.539,349.444 350.902,349.589 351.016,349.347Z" style="fill:rgb(106,73,54);"/>
        </g>
        <g transform="matrix(1.375,0,0,1.375,2,0)">
            <path d="M405.165,348.452C405.055,347.935 405.28,347.942 405.17,347.424C405.058,346.896 404.892,346.983 404.741,346.451C404.707,346.332 404.42,345.32 404.983,344.928C405.236,344.751 406.406,345.402 406.519,345.466C408.139,346.368 408.022,346.71 407.539,348.506C407.49,348.688 406.885,350.936 405.433,349.552C405.16,349.291 405.438,348.712 405.165,348.452Z" style="fill:rgb(131,95,76);"/>
        </g>
        <g transform="matrix(1.375,0,0,1.375,2,0)">
            <path d="M441.927,374.297C441.861,374.169 441.102,372.705 441.102,372.705C440.992,372.569 440.796,372.508 440.709,372.356C440.127,371.341 440.643,370.811 440.734,370.717C441.627,369.799 443.171,371.549 443.318,371.715C444.822,373.421 443.597,374.3 443.421,374.427C443.149,374.622 442.702,374.391 442.43,374.587L441.927,374.297Z" style="fill:rgb(141,107,89);"/>
        </g>
        <g transform="matrix(1.375,0,0,1.375,2,0)">
            <path d="M698.603,340.626C698.447,340.606 696.657,340.376 696.657,340.376C695.256,339.616 695.35,338.646 695.367,338.462C695.498,337.11 700.534,338.072 699.073,340.21C698.955,340.383 698.721,340.453 698.603,340.626Z" style="fill:rgb(130,93,73);"/>
        </g>
        <g transform="matrix(1.375,0,0,1.375,2,0)">
            <path d="M554.717,379.94C554.444,379.273 554.243,379.398 553.966,378.723C553.908,378.581 554.043,378.42 554.031,378.267C553.833,375.649 553.342,375.659 553.502,375.5C553.75,375.255 554.165,375.717 554.5,375.814C554.64,375.854 555.756,376.173 556.066,376.741C557.047,378.53 556.295,378.638 554.717,379.94Z" style="fill:rgb(106,71,54);"/>
        </g>
        <g transform="matrix(1.375,0,0,1.375,2,0)">
            <path d="M625.544,359.537L624.203,360.446C624.158,360.289 623.648,358.486 623.648,358.486C623.641,358.285 623.608,357.378 625.567,356.876C626.934,356.525 627.049,357.202 626.565,358.544C626.178,359.62 625.714,359.371 625.544,359.537Z" style="fill:rgb(131,92,73);"/>
        </g>
        <g transform="matrix(1.375,0,0,1.375,2,0)">
            <path d="M330.497,359.506C331.056,359.488 331.616,359.471 332.175,359.453C332.498,361.052 332.882,361.053 332.444,362.485C332.363,362.748 332.295,363.073 332.059,363.216C331.887,363.321 331.672,363.061 331.472,363.077C331.214,363.097 330.957,363.449 330.734,363.318C330.49,363.175 330.555,362.78 330.493,362.503C330.421,362.182 330.493,361.816 330.334,361.528C330.262,361.397 329.868,361.568 329.898,361.422C330.02,360.824 330.373,361.033 330.552,360.459C330.7,359.988 330.349,359.981 330.497,359.506Z" style="fill:rgb(101,60,39);"/>
        </g>
        <g transform="matrix(1.375,0,0,1.375,2,0)">
            <path d="M384.064,358.27C383.017,358.471 382.186,358.646 381.988,358.282C381.577,357.522 382.456,356.669 382.56,356.569C382.773,356.362 383.096,356.304 383.327,356.119C383.465,356.008 383.479,355.743 383.65,355.697C383.874,355.636 384.097,355.857 384.328,355.848C384.602,355.836 384.911,355.461 385.123,355.634C385.67,356.083 384.787,357.488 384.7,357.626C384.54,357.881 384.225,358.015 384.064,358.27Z" style="fill:rgb(137,103,83);"/>
        </g>
        <g transform="matrix(1.375,0,0,1.375,2,0)">
            <path d="M669.653,342.34C670.333,342.354 671.012,342.367 671.692,342.38C672.013,342.99 672.334,343.6 672.655,344.209C672.292,344.324 671.892,344.291 671.528,344.405C670.648,344.682 670.334,345.229 670.28,345.266C670.155,344.958 669.469,345.23 669.344,344.921C669.265,344.729 669.366,344.737 669.653,342.34Z" style="fill:rgb(119,84,66);"/>
        </g>
        <g transform="matrix(1.375,0,0,1.375,2,0)">
            <path d="M673.269,346.434C673.459,346.773 672.964,347.256 673.155,347.595C673.312,347.874 673.788,347.732 674.077,347.87C674.522,348.081 674.705,348.301 674.747,348.352C675.181,348.872 675.001,348.978 675.437,349.501C674.759,349.645 674.082,349.79 673.404,349.934C672.842,349.56 672.279,349.186 671.717,348.811C672.582,347.677 672.574,347.69 673.269,346.434Z" style="fill:rgb(129,91,73);"/>
        </g>
        <g transform="matrix(1.375,0,0,1.375,2,0)">
            <path d="M673.404,349.934C674.082,349.79 674.759,349.645 675.437,349.501C675.618,349.891 675.906,350.224 676.088,350.614C676.817,352.185 675.427,352.622 674.635,352.167C674.113,351.867 673.474,350.126 673.404,349.934Z" style="fill:rgb(117,77,57);"/>
        </g>
        <g transform="matrix(1.375,0,0,1.375,2,0)">
            <path d="M463.39,358.617C463.3,358.207 462.885,357.917 462.795,357.507C462.775,357.416 462.618,356.708 463.571,356.643C464.311,356.592 464.333,356.601 464.904,357.09C465.61,357.694 466.009,357.692 465.583,358.53C465.053,359.573 464.018,359.105 463.889,359.046C463.689,358.956 463.59,358.708 463.39,358.617Z" style="fill:rgb(148,113,94);"/>
        </g>
        <g transform="matrix(1.375,0,0,1.375,2,0)">
            <path d="M327.648,347.428C327.626,347.118 327.442,346.834 327.42,346.525C327.409,346.376 327.278,344.537 328.539,345.025C328.845,345.144 329.198,345.269 329.376,345.546C329.417,345.61 329.242,345.627 329.481,346.497C329.63,347.04 329.766,346.968 329.918,347.521C329.162,347.49 328.405,347.459 327.648,347.428Z" style="fill:rgb(118,82,58);"/>
        </g>
        <g transform="matrix(1.375,0,0,1.375,2,0)">
            <path d="M423.902,339.315C424.005,339.049 423.586,338.752 423.689,338.485C423.956,337.791 425.553,337.069 426.277,337.723C427.259,338.61 426.437,339.175 426.337,339.244C425.985,339.487 425.221,339.458 423.902,339.315Z" style="fill:rgb(117,76,58);"/>
        </g>
        <g transform="matrix(1.375,0,0,1.375,2,0)">
            <path d="M556.28,372.428C556.213,372.504 555.443,373.377 555.443,373.377C554.484,373.796 554.165,373.695 554.063,372.657C553.898,370.995 555.321,370.595 555.785,371.028C556.521,371.713 556.251,372.345 556.28,372.428Z" style="fill:rgb(138,101,84);"/>
        </g>
        <g transform="matrix(1.375,0,0,1.375,2,0)">
            <path d="M384.368,359.809C384.727,360.046 384.818,359.751 385.178,359.989C385.218,360.016 385.397,360.135 385.453,360.528C385.583,361.429 385.483,361.495 384.676,361.899C383.82,362.328 383.688,362.474 383.014,361.788C382.409,361.174 382.849,361.077 383.455,360.464C383.718,360.197 384.105,360.075 384.368,359.809Z" style="fill:rgb(138,107,85);"/>
        </g>
        <g transform="matrix(1.375,0,0,1.375,2,0)">
            <path d="M625.544,359.537C625.69,359.735 625.56,360.059 625.706,360.257C625.838,360.435 626.18,360.372 626.298,360.559C626.37,360.674 626.961,361.616 626.11,362.249C626.081,362.271 624.822,362.228 624.779,362.203C624.424,362 624.305,361.636 624.285,361.576C624.106,361.03 624.384,361 624.203,360.446L625.544,359.537Z" style="fill:rgb(144,106,87);"/>
        </g>
        <g transform="matrix(1.375,0,0,1.375,2,0)">
            <path d="M649.212,347.669C649.193,347.951 649.407,348.216 649.388,348.498C649.368,348.793 648.718,349.555 648.521,349.587C647.297,349.787 647.177,348.737 647.162,348.603C647.007,347.243 647.321,346.968 648.66,347.202C648.897,347.244 648.975,347.628 649.212,347.669Z" style="fill:rgb(137,95,78);"/>
        </g>
        <g transform="matrix(1.375,0,0,1.375,2,0)">
            <path d="M441.199,360.446C442.061,361.515 443.684,361.339 442.5,362.058C442.427,362.103 442.174,362.256 441.482,362.398C441.154,362.465 440.808,362.405 440.48,362.472C440.72,361.797 440.959,361.121 441.199,360.446Z" style="fill:rgb(95,61,42);"/>
        </g>
        <g transform="matrix(1.375,0,0,1.375,2,0)">
            <path d="M444.675,349.433L445.374,350.035C444.99,350.262 444.917,350.849 444.532,351.076C443.952,351.419 443.639,351.144 443.582,351.093C443.463,350.988 443.643,351.001 444.675,349.433Z" style="fill:rgb(106,69,50);"/>
        </g>
    </g>
    <g transform="matrix(2.61531,0,0,2.61531,-1149.633195,-938.851988)">
        <g transform="matrix(1.375,0,0,1.375,2,0)">
            <path d="M546.373,412.66C545.072,411.276 544.813,411.384 544.446,409.517C543.48,404.608 547.333,400.731 551.429,401.8C557.386,403.356 557.336,411.381 552.5,413.499C548.989,415.036 546.468,412.722 546.373,412.66ZM547.072,408.601C547.266,409.016 547.191,409.709 548.355,410.683C550.168,412.2 553.371,410.759 553.234,407.512C553.22,407.181 553.115,404.704 550.516,404.379C550.32,404.354 549.121,404.204 548.147,405.082C546.624,406.456 547.078,408.518 547.072,408.601Z" style="fill:rgb(63,45,35);"/>
        </g>
        <g transform="matrix(1.375,0,0,1.375,2,0)">
            <path d="M506.691,404.493C506.892,402.818 506.849,402.818 506.908,402.685C507.584,401.169 512.289,401.794 512.442,401.828C518.176,403.129 518.498,411.61 513.476,413.434C511.587,414.12 507.478,414.198 506.918,413.025C506.668,412.501 506.689,405.176 506.691,404.493ZM509.277,407.502C509.328,408.176 509.25,408.855 509.301,409.529C509.428,411.184 509.814,411.289 511.463,411.152C515.111,410.851 515.373,405.02 511.517,404.389C509.106,403.995 509.359,405.067 509.277,407.502Z" style="fill:rgb(58,40,31);"/>
        </g>
        <g transform="matrix(1.375,0,0,1.375,2,0)">
            <path d="M419.64,413.691C419.505,413.716 419.531,414 419.396,414.025C417.688,414.338 416.207,412.152 416.028,411.888C412.686,406.955 413.146,412.825 412.44,413.428C412.329,413.523 411.501,414.231 410.614,413.377C410.103,412.884 410.067,412.781 410.312,404.502C410.371,402.486 410.419,401.573 414.496,401.66C420.769,401.794 420.363,406.201 419.079,408.233C418.152,409.699 417.88,409.873 418.824,411.332C419.514,412.4 419.355,412.454 419.64,413.691ZM415.468,407.374C415.844,407.151 415.897,407.324 416.273,407.1C416.316,407.075 416.605,406.902 416.701,406.641C417.253,405.126 417.109,404.724 415.534,404.378C413.227,403.872 412.984,405.335 412.946,405.56C412.923,405.704 412.748,406.754 413.674,407.235L415.468,407.374Z" style="fill:rgb(64,47,35);"/>
        </g>
        <g transform="matrix(1.375,0,0,1.375,2,0)">
            <path d="M471.951,408.509C471.941,408.045 471.651,403.693 472.333,402.35C472.692,401.643 475.24,401.656 475.499,401.651C483.177,401.492 481.102,407.276 480.522,408.513C479.861,409.924 479.976,410.007 480.65,411.426C480.713,411.56 481.294,412.783 481.121,413.225C480.297,415.338 478.051,412.402 477.886,412.186C477.41,411.564 477.568,411.484 477.105,410.843C476.449,409.935 476.364,409.669 475.341,410.123C474.256,410.605 474.824,412.654 474.296,413.319C474.203,413.436 473.428,414.41 472.453,413.567C471.705,412.919 471.949,408.783 471.951,408.509ZM476.495,407.427C476.792,407.33 477.129,407.413 477.427,407.317C477.615,407.255 478.304,406.603 478.363,406.439C479.226,404.058 474.698,403.415 474.439,405.489C474.229,407.176 474.83,407.078 476.495,407.427Z" style="fill:rgb(63,45,35);"/>
        </g>
        <g transform="matrix(1.375,0,0,1.375,2,0)">
            <path d="M593.663,413.794C593.268,413.71 592.847,413.891 592.453,413.807C591.206,413.542 589.727,410.579 589.543,410.438C589.424,410.348 588.404,409.569 587.684,410.624C587.579,410.779 587.542,413.539 586.569,413.725C584.848,414.053 584.791,411.713 584.785,411.484C584.771,410.923 584.668,406.701 584.934,404.468C585.191,402.297 585.31,401.878 587.502,401.766C589.545,401.661 593.795,401.32 594.229,405.517C594.417,407.337 592.51,409.117 592.912,410.397C593.037,410.794 593.31,411.133 593.451,411.525C593.619,411.991 593.658,412.408 593.665,412.486C593.727,413.153 593.601,413.136 593.663,413.794ZM589.494,407.42C589.79,407.32 590.122,407.369 590.418,407.269C590.577,407.216 591.708,406.835 591.518,405.496C591.321,404.106 586.87,403.463 587.6,406.463C587.88,407.614 588.325,407.149 589.494,407.42Z" style="fill:rgb(65,47,35);"/>
        </g>
        <g transform="matrix(1.375,0,0,1.375,2,0)">
            <path d="M560.517,401.793C562.346,401.729 562.334,401.719 562.492,401.723C562.987,401.736 567.147,401.845 567.392,405.507C567.499,407.112 567.236,407.062 566.509,408.505C565.425,410.656 567.098,411.654 567.343,412.536C567.43,412.846 567.067,414.478 565.415,413.798C564.593,413.459 563.681,411.665 563.573,411.452C562.534,409.404 561.049,409.289 560.832,411.566C560.799,411.911 560.845,412.265 560.769,412.602C560.245,414.927 558.724,413.532 558.586,413.406C558.013,412.88 558.178,410.74 558.196,410.506C558.428,407.505 558.28,407.523 558.203,404.508C558.16,402.821 558.022,402.494 559.59,401.903C559.881,401.794 560.226,401.903 560.517,401.793ZM563.408,407.288C564.259,406.521 564.662,406.638 564.499,405.5C564.323,404.265 562.682,404.278 562.495,404.28C560.804,404.293 560.695,406.235 561.098,406.761C561.898,407.807 563.321,407.287 563.408,407.288Z" style="fill:rgb(67,47,36);"/>
        </g>
        <g transform="matrix(1.375,0,0,1.375,2,0)">
            <path d="M660.357,413.398C659.788,413.505 660.012,413.907 659.444,414.013C659.361,414.029 659.132,414.072 658.413,413.763C657.634,413.428 656.694,411.651 656.584,411.442C656.49,411.265 655.506,409.405 654.356,410.304C654.08,410.52 653.833,413.102 653.447,413.434C653.335,413.53 652.43,414.31 651.601,413.373C651.08,412.784 651.357,407.629 651.353,407.5C651.243,403.448 650.954,401.928 654.504,401.727C659.708,401.433 660.479,403.781 660.324,406.47C660.195,408.707 658.252,409.168 659.689,411.392C660.278,412.301 660.14,412.342 660.357,413.398ZM656.45,407.352C656.775,407.097 656.85,407.266 657.173,407.012C657.211,406.982 657.422,406.816 657.52,406.512C658.292,404.11 655.717,404.265 655.475,404.28C653.286,404.412 654.112,406.458 654.192,406.658C654.668,407.837 655.072,407.265 656.45,407.352Z" style="fill:rgb(65,49,37);"/>
        </g>
        <g transform="matrix(1.375,0,0,1.375,2,0)">
            <path d="M595.602,413.342C595.656,413.068 595.854,412.835 595.908,412.561C596.025,411.963 595.885,411.944 596.152,411.379C599.22,404.889 599.409,402.299 601.521,401.844C602.731,401.584 603.43,403.305 603.508,403.497C604.78,406.63 604.522,406.713 606.022,409.72C606.169,410.014 608.39,414.466 605.399,413.78C604.571,413.59 604.386,411.449 602.532,411.308C602.291,411.29 600.274,411.136 599.524,411.54C599.315,411.652 599.186,411.873 599.039,412.059C597.96,413.43 598.118,414.049 596.407,413.757C596.109,413.706 595.9,413.393 595.602,413.342ZM600.966,409.097C601.977,408.973 601.983,409.111 602.064,409.076C602.962,408.692 602.73,408.448 602.523,407.494C602.128,405.667 600.744,405.647 600.422,407.486C600.205,408.721 600.911,408.934 600.966,409.097Z" style="fill:rgb(66,47,36);"/>
        </g>
        <g transform="matrix(1.375,0,0,1.375,2,0)">
            <path d="M497.266,403.392C497.655,402.923 498.97,400.228 500.97,403.25C501.17,403.551 502.005,404.814 502.717,407.423C503.62,410.733 504.258,410.541 504.466,412.501C504.579,413.575 504.562,413.936 503.483,413.86C501.974,413.754 502.613,411.175 499.501,411.191C497.494,411.201 497.168,411.531 496.492,412.493C496.426,412.586 495.902,413.332 495.533,413.554C494.523,414.162 493.659,414.041 493.602,414.055L493.304,413.786C493.783,411.893 493.766,411.901 493.821,411.741C493.876,411.585 494.057,411.499 494.124,411.347C495.573,408.089 495.04,407.887 497.266,403.392ZM499.395,405.814C499.004,406.266 498.792,405.951 498.4,406.405C498.339,406.475 498.131,406.716 497.956,407.479C497.919,407.642 497.559,409.21 499.63,408.742C501.227,408.382 499.531,406.005 499.395,405.814Z" style="fill:rgb(62,42,34);"/>
        </g>
        <g transform="matrix(1.375,0,0,1.375,2,0)">
            <path d="M421.624,411.565C424.195,406.018 425.115,402.334 426.617,401.893C427.143,401.739 428.773,401.261 430.624,407.453C431.391,410.018 433.024,412.789 432.499,413.499C431.756,414.504 430.702,413.498 430.592,413.392C429.813,412.649 430.112,410.951 426.47,411.269C423.96,411.489 424.074,413.714 422.49,413.82C420.936,413.925 421.493,413.107 421.624,411.565ZM425.896,408.284C426.102,408.338 426.114,408.708 426.32,408.763C426.489,408.808 428.579,409.361 428.117,407.515C427.658,405.682 426.399,405.687 425.893,407.505C425.824,407.755 425.965,408.034 425.896,408.284Z" style="fill:rgb(65,46,36);"/>
        </g>
        <g transform="matrix(1.375,0,0,1.375,2,0)">
            <path d="M491.85,413.058L491.803,413.217L491.725,413.399C491.725,413.399 491.942,413.78 491.631,413.75C491.303,413.719 491.32,413.998 487.514,413.925C487.266,413.92 484.91,413.874 484.427,413.65C483.072,413.022 483.84,410.19 483.691,404.499C483.615,401.586 484.592,401.724 487.499,401.679C489.684,401.645 491.092,401.553 491.818,402.3C492.096,402.586 492.567,404.065 490.408,404.131C487.084,404.234 486.956,403.951 486.491,404.492C486.475,404.511 485.622,406.253 487.498,406.507C487.541,406.513 490.234,406.574 490.407,406.661C491.445,407.187 491.761,407.342 491.187,408.334C490.921,408.793 489.716,408.917 489.579,408.931C486.856,409.212 486.74,409.029 486.439,409.455C485.101,411.355 488.276,411.424 488.504,411.429C491.168,411.488 491.203,411.384 491.462,411.578C491.696,411.754 491.715,412.254 491.775,412.399C491.784,412.42 491.822,412.447 491.822,412.447C491.854,413.208 491.778,412.421 491.85,413.058Z" style="fill:rgb(66,46,37);"/>
        </g>
        <g transform="matrix(1.375,0,0,1.375,2,0)">
            <path d="M459.848,403.522C459.913,403.283 459.839,403.019 459.904,402.78C460.287,401.383 462.209,401.343 462.416,403.509C462.622,405.657 462.333,406.452 464.5,406.427C466.701,406.401 466.577,405.73 466.796,403.541C467.036,401.147 469.13,401.205 469.256,403.525C469.287,404.082 469.152,404.079 469.294,410.502C469.3,410.762 469.359,413.475 468.574,413.677C467.508,413.951 467.35,413.806 467.021,412.769C466.889,412.353 466.844,411.913 466.793,411.479C466.697,410.672 467.141,408.981 464.472,409.123C461.475,409.282 462.976,411.904 462.114,413.195C461.582,413.99 459.993,413.956 459.76,412.449C459.68,411.93 459.821,408.426 459.796,407.495C459.745,405.507 459.734,405.523 459.848,403.522Z" style="fill:rgb(65,44,34);"/>
        </g>
        <g transform="matrix(1.375,0,0,1.375,2,0)">
            <path d="M649.148,413.182C648.854,413.327 648.676,414.07 646.495,414.031C641.224,413.937 641.19,413.562 640.951,413.032C640.89,412.897 640.673,410.711 640.653,410.509C640.576,409.734 640.55,405.9 640.547,405.499C640.518,401.173 642.165,401.709 646.495,401.732C646.713,401.733 649.06,401.745 649.022,402.724C648.969,404.067 647.591,404.131 647.42,404.139C644.093,404.295 643.983,404.07 643.557,404.547C643.403,404.721 642.789,406.318 644.484,406.558C645.064,406.64 648.311,406.242 648.517,407.496C648.537,407.62 648.686,408.527 647.694,408.825C647.613,408.85 645.963,409.01 645.473,409.021C644.373,409.046 644.195,408.651 643.486,409.49C643.403,409.589 642.878,411.179 644.518,411.433C644.703,411.461 648.158,411.469 648.421,411.64C648.535,411.715 648.472,411.749 649.148,413.182Z" style="fill:rgb(65,48,37);"/>
        </g>
        <g transform="matrix(1.375,0,0,1.375,2,0)">
            <path d="M628.379,413.366C628.05,413.462 627.994,413.847 626.541,413.903C621.339,414.101 620.925,413.727 620.57,413.405C619.897,412.798 619.839,412.687 619.891,405.483C619.893,405.234 619.909,402.951 620.405,402.408C621.365,401.356 627.106,401.75 627.372,401.843C628.049,402.079 629.075,404.085 626.445,404.156C623.799,404.228 623.807,404.175 623.389,404.298C622.359,404.601 622.215,406.196 623.516,406.459C624.086,406.574 627.32,406.254 627.525,407.495C627.545,407.619 627.696,408.53 626.696,408.832C626.024,409.036 622.197,408.526 622.542,410.49C622.688,411.322 624.335,411.411 624.508,411.42C624.905,411.441 627.932,411.296 628.305,411.798C628.379,411.899 628.31,411.908 628.379,413.366Z" style="fill:rgb(67,48,38);"/>
        </g>
        <g transform="matrix(1.375,0,0,1.375,2,0)">
            <path d="M369.375,406.496C369.398,407.726 369.2,409.725 370.299,410.725C370.366,410.786 373.572,412.773 373.993,408.535C374.247,405.977 373.628,402.49 374.739,401.92C374.915,401.83 376.397,401.069 376.656,403.475C376.67,403.602 376.741,407.602 376.692,408.511C376.28,416.004 368.573,414.529 367.322,411.605C366.28,409.168 366.701,405.303 366.756,403.537C366.801,402.111 366.966,401.841 368.398,401.883C368.469,401.885 369.13,402.488 369.205,402.652C369.376,403.03 369.375,406.188 369.375,406.496Z" style="fill:rgb(62,47,37);"/>
        </g>
        <g transform="matrix(1.375,0,0,1.375,2,0)">
            <path d="M397.97,408.482C398.073,405.202 398.183,402.289 398.721,401.979C398.848,401.906 399.657,401.44 400.476,402.515C401.282,403.574 399.493,411.702 403.456,411.251C405.893,410.973 405.337,405.873 405.326,404.501C405.324,404.237 405.296,400.686 407.29,401.858C407.75,402.128 408.068,402.314 407.838,408.504C407.552,416.225 401.018,413.669 400.565,413.384C398.006,411.777 398.146,409.689 397.97,408.482Z" style="fill:rgb(60,43,31);"/>
        </g>
        <g transform="matrix(1.375,0,0,1.375,2,0)">
            <path d="M522.527,414.039C522.063,413.932 520.239,413.83 519.179,412.739C519.092,412.65 518.407,411.944 519.063,411.182C519.994,410.101 520.221,410.806 521.584,411.191C522.789,411.532 523.338,411.475 523.491,411.459C525.675,411.231 524.43,409.771 524.326,409.65C524.13,409.42 520.973,408.3 520.705,408.163C519.115,407.35 518.996,405.763 518.977,405.51C518.611,400.645 526.674,400.924 526.77,403.492C526.775,403.628 526.818,404.784 525.536,404.66C524.843,404.593 524.2,404.235 523.507,404.159C523.372,404.144 522.258,404.022 521.894,404.688C521.385,405.619 521.77,405.68 522.638,406.279C522.766,406.368 524.518,406.988 524.682,407.046C529.909,408.896 526.402,412.891 526.172,413.071C524.643,414.266 524.469,413.843 522.527,414.039Z" style="fill:rgb(62,46,36);"/>
        </g>
        <g transform="matrix(1.375,0,0,1.375,2,0)">
            <path d="M354.854,409.411C354.83,409.097 354.743,408.79 354.718,408.476C354.31,403.295 359.342,399.976 363.61,402.351C364.259,402.712 364.234,402.791 364.265,403.546C364.298,404.386 364.476,404.622 363.663,404.86C363.043,405.041 363.048,404.879 361.496,404.513C358.033,403.697 356.743,407.831 358.117,409.726C360.415,412.895 363.133,409.782 364.291,410.824C364.46,410.976 364.611,412.244 364.467,412.48C363.79,413.593 360.377,414.894 357.657,413.214C355.287,411.75 355.06,409.907 354.854,409.411Z" style="fill:rgb(55,42,32);"/>
        </g>
        <g transform="matrix(1.375,0,0,1.375,2,0)">
            <path d="M662.849,412.29C662.859,411.167 662.399,410.628 663.529,410.596C663.883,410.586 667.199,412.176 668.01,411.178C668.066,411.11 668.609,410.012 667.545,409.446C665.698,408.463 662.389,408.407 662.788,404.6C663.248,400.204 671.921,401.56 670.123,404.25C669.543,405.118 666.359,403.598 665.647,404.598C664.846,405.722 666.403,406.339 666.552,406.399C668.031,406.986 670.338,407.162 670.914,409.392C672.051,413.796 665.605,415.353 663.211,412.748C663.079,412.605 662.981,412.433 662.849,412.29Z" style="fill:rgb(63,50,40);"/>
        </g>
        <g transform="matrix(1.375,0,0,1.375,2,0)">
            <path d="M613.247,408.26C615.112,403.169 615.148,401.77 616.514,401.681C618.768,401.534 616.751,406.29 615.19,410.392C615.004,410.881 614.173,413.234 613.52,413.53C610.991,414.676 610.734,411.906 607.663,404.436C607.586,404.247 606.81,402.361 607.705,401.889C607.844,401.816 608.568,401.433 609.588,402.415C610.2,403.004 611.269,406.212 611.384,406.554C611.566,407.103 611.516,407.752 611.848,408.225C611.913,408.317 611.94,408.228 613.247,408.26Z" style="fill:rgb(67,48,39);"/>
        </g>
        <g transform="matrix(1.375,0,0,1.375,2,0)">
            <path d="M536.517,401.771C538.505,401.687 538.488,401.654 540.489,401.699C540.709,401.704 543.455,401.765 542.548,403.523C542.034,404.52 537.975,403.983 537.469,404.465C536.383,405.498 537.388,406.382 537.51,406.489C537.828,406.769 537.868,406.642 540.463,406.784C540.641,406.794 542.442,406.893 542.111,408.277C541.663,410.144 537.856,408.464 537.205,410.353C536.824,411.459 537.169,411.501 536.881,412.645C536.243,415.176 534.81,413.474 534.692,413.333C534.046,412.567 534.422,409.156 534.368,407.502C534.346,406.837 534.302,406.172 534.285,405.507C534.188,401.869 535.167,402.118 536.517,401.771Z" style="fill:rgb(69,49,40);"/>
        </g>
        <g transform="matrix(1.375,0,0,1.375,2,0)">
            <path d="M391.501,401.754C394.171,401.695 394.233,401.699 394.47,401.717C394.645,401.731 396.613,401.881 396.037,403.257C395.634,404.22 395.444,404.066 394.448,404.371C394.179,404.454 393.876,404.5 393.662,404.683C392.816,405.41 393.268,410.331 393.193,411.49C393.179,411.718 393.031,414.005 391.44,413.74C389.97,413.495 390.439,408.422 390.401,406.504C390.36,404.37 389.688,404.514 388.566,404.268C386.087,403.726 387.458,401.986 387.695,401.871C388.633,401.42 388.681,401.693 391.501,401.754Z" style="fill:rgb(66,49,39);"/>
        </g>
        <g transform="matrix(1.375,0,0,1.375,2,0)">
            <path d="M582.583,402.45L582.487,403.492C582.318,403.58 582.447,403.938 582.277,404.025C581.735,404.306 581.029,404.191 580.51,404.516C579.766,404.982 579.747,406.338 579.745,406.508C579.741,406.747 579.772,406.743 579.765,409.498C579.765,409.803 579.757,412.777 579.283,413.282C579.149,413.425 577.741,414.923 576.99,412.406C576.823,411.848 577.469,405.439 576.415,404.604C576.218,404.448 573.33,404.197 573.759,402.587C574.021,401.606 576.272,401.685 576.502,401.693C578.504,401.764 578.491,401.719 580.49,401.69C582.494,401.662 582.282,402.258 582.583,402.45Z" style="fill:rgb(73,55,45);"/>
        </g>
        <g transform="matrix(1.375,0,0,1.375,2,0)">
            <path d="M457.254,401.961C457.281,402.154 457.532,402.267 457.559,402.461C457.598,402.731 457.358,404.021 457.301,404.052C456.758,404.342 456.095,404.316 455.517,404.528C453.487,405.276 455.938,413.59 453.541,413.788C452.062,413.91 451.925,411.709 451.91,411.483C451.819,410.024 452.224,405.282 451.406,404.617C451.219,404.465 448.246,404.222 448.752,402.594C449.085,401.524 451.162,401.734 455.487,401.721C456.742,401.717 456.998,401.926 457.254,401.961Z" style="fill:rgb(72,53,43);"/>
        </g>
        <g transform="matrix(1.375,0,0,1.375,2,0)">
            <path d="M379.105,411.5C379.223,404.082 379.126,404.09 379.17,403.447C379.352,400.769 381.003,401.87 381.168,401.98C382.188,402.66 381.661,407.761 381.809,409.46C382.014,411.812 385.031,411.14 385.542,411.182C388.286,411.404 387.265,413.071 387.156,413.25C386.918,413.638 386.607,414.147 381.49,413.815C378.607,413.628 379.336,412.28 379.105,411.5Z" style="fill:rgb(54,37,30);"/>
        </g>
        <g transform="matrix(1.375,0,0,1.375,2,0)">
            <path d="M633.504,413.856C633.34,413.836 631.456,413.598 631.456,413.598C631.222,413.49 630.98,413.315 630.888,413.075C630.506,412.08 630.064,402.647 631.273,402.046C632.991,401.192 633.197,403.341 633.216,403.536C633.29,404.307 633.078,410.012 633.489,410.507C634.218,411.383 634.362,411.156 635.513,411.185C635.745,411.191 638.071,411.25 638.374,411.673C638.431,411.753 638.472,413.324 638.419,413.402C638.138,413.821 636.684,413.864 636.529,413.869C636.287,413.876 636.304,413.868 633.504,413.856Z" style="fill:rgb(67,47,39);"/>
        </g>
        <g transform="matrix(1.375,0,0,1.375,2,0)">
            <path d="M437.247,404.505C437.257,409.161 436.915,411.005 438.576,411.188C439.161,411.253 441.849,411.044 442.404,411.597C442.507,411.699 443.299,412.489 442.411,413.411C441.864,413.979 438.945,413.888 438.511,413.882C438.265,413.878 435.787,413.841 435.458,413.578C434.751,413.014 434.698,407.99 434.693,407.5C434.658,404.196 434.461,402.848 435.227,402.081C435.315,401.993 435.97,401.337 436.766,402.198C437.438,402.925 437.131,403.042 437.247,404.505Z" style="fill:rgb(60,43,33);"/>
        </g>
    </g>
</svg>
